<?xml version="1.0" encoding="UTF-8"?>
<svg xmlns="http://www.w3.org/2000/svg" version="1.1" width="256" height="256" viewBox="0 0 256 256"><rect x="0" y="0" width="256" height="256" fill="#ffffff"/><g transform="scale(8.258)"><g transform="translate(1,1)"><path fill-rule="evenodd" d="M9 0L9 1L11 1L11 2L9 2L9 3L8 3L8 5L9 5L9 6L8 6L8 7L9 7L9 9L8 9L8 8L5 8L5 9L2 9L2 8L0 8L0 12L2 12L2 13L4 13L4 14L1 14L1 13L0 13L0 14L1 14L1 15L2 15L2 17L4 17L4 16L5 16L5 18L4 18L4 19L3 19L3 18L1 18L1 17L0 17L0 21L1 21L1 19L3 19L3 21L4 21L4 19L5 19L5 21L7 21L7 20L8 20L8 19L10 19L10 20L9 20L9 21L8 21L8 24L9 24L9 23L10 23L10 22L12 22L12 21L10 21L10 20L11 20L11 19L14 19L14 20L13 20L13 21L14 21L14 22L13 22L13 23L12 23L12 24L10 24L10 25L9 25L9 27L8 27L8 29L9 29L9 27L11 27L11 28L12 28L12 29L16 29L16 28L17 28L17 29L18 29L18 28L19 28L19 27L21 27L21 29L22 29L22 28L23 28L23 29L24 29L24 27L25 27L25 28L26 28L26 29L27 29L27 27L28 27L28 28L29 28L29 27L28 27L28 26L29 26L29 24L28 24L28 23L27 23L27 22L26 22L26 21L29 21L29 20L26 20L26 21L25 21L25 19L24 19L24 20L23 20L23 18L28 18L28 19L29 19L29 17L27 17L27 14L29 14L29 12L28 12L28 13L26 13L26 17L21 17L21 16L22 16L22 15L24 15L24 16L25 16L25 13L24 13L24 11L25 11L25 9L26 9L26 10L28 10L28 9L26 9L26 8L24 8L24 9L23 9L23 10L20 10L20 9L19 9L19 6L18 6L18 8L17 8L17 5L16 5L16 8L17 8L17 10L16 10L16 9L15 9L15 5L14 5L14 8L13 8L13 9L11 9L11 8L12 8L12 7L13 7L13 6L12 6L12 7L11 7L11 4L12 4L12 5L13 5L13 4L14 4L14 3L15 3L15 4L18 4L18 3L19 3L19 2L18 2L18 1L19 1L19 0L18 0L18 1L16 1L16 3L15 3L15 2L14 2L14 1L15 1L15 0L13 0L13 1L12 1L12 0ZM20 1L20 4L19 4L19 5L21 5L21 1ZM12 2L12 3L14 3L14 2ZM17 2L17 3L18 3L18 2ZM9 3L9 5L10 5L10 3ZM9 6L9 7L10 7L10 8L11 8L11 7L10 7L10 6ZM20 6L20 8L21 8L21 6ZM1 9L1 10L2 10L2 9ZM5 9L5 11L4 11L4 10L3 10L3 11L2 11L2 12L3 12L3 11L4 11L4 12L5 12L5 11L6 11L6 12L7 12L7 13L5 13L5 16L7 16L7 17L6 17L6 18L5 18L5 19L6 19L6 20L7 20L7 19L6 19L6 18L7 18L7 17L8 17L8 15L9 15L9 18L10 18L10 19L11 19L11 17L12 17L12 18L13 18L13 17L12 17L12 16L14 16L14 13L16 13L16 12L15 12L15 9L13 9L13 10L10 10L10 9L9 9L9 10L10 10L10 11L9 11L9 12L7 12L7 11L8 11L8 10L7 10L7 9ZM6 10L6 11L7 11L7 10ZM13 10L13 11L14 11L14 10ZM18 10L18 11L17 11L17 13L19 13L19 12L20 12L20 13L21 13L21 14L17 14L17 16L16 16L16 17L17 17L17 16L18 16L18 18L19 18L19 17L20 17L20 16L21 16L21 15L22 15L22 12L23 12L23 11L24 11L24 10L23 10L23 11L21 11L21 12L20 12L20 10ZM10 11L10 12L9 12L9 14L13 14L13 12L12 12L12 11ZM18 11L18 12L19 12L19 11ZM11 12L11 13L12 13L12 12ZM7 13L7 14L6 14L6 15L8 15L8 13ZM3 15L3 16L4 16L4 15ZM10 15L10 17L11 17L11 15ZM28 15L28 16L29 16L29 15ZM14 17L14 18L15 18L15 17ZM20 18L20 20L19 20L19 19L17 19L17 20L15 20L15 21L17 21L17 20L18 20L18 21L20 21L20 20L21 20L21 18ZM9 21L9 22L10 22L10 21ZM21 21L21 24L24 24L24 21ZM17 22L17 28L18 28L18 27L19 27L19 26L18 26L18 25L19 25L19 23L18 23L18 22ZM22 22L22 23L23 23L23 22ZM13 23L13 25L12 25L12 26L11 26L11 27L13 27L13 28L15 28L15 25L16 25L16 23ZM26 23L26 25L27 25L27 23ZM13 25L13 26L14 26L14 25ZM22 25L22 26L21 26L21 27L22 27L22 26L25 26L25 27L27 27L27 26L25 26L25 25ZM0 0L0 7L7 7L7 0ZM1 1L1 6L6 6L6 1ZM2 2L2 5L5 5L5 2ZM22 0L22 7L29 7L29 0ZM23 1L23 6L28 6L28 1ZM24 2L24 5L27 5L27 2ZM0 22L0 29L7 29L7 22ZM1 23L1 28L6 28L6 23ZM2 24L2 27L5 27L5 24Z" fill="#000000"/></g></g></svg>
