<?xml version="1.0" encoding="UTF-8"?>
<svg xmlns="http://www.w3.org/2000/svg" version="1.1" width="256" height="256" viewBox="0 0 256 256"><rect x="0" y="0" width="256" height="256" fill="#ffffff"/><g transform="scale(7.314)"><g transform="translate(1,1)"><path fill-rule="evenodd" d="M10 0L10 2L11 2L11 0ZM12 0L12 1L13 1L13 0ZM14 0L14 2L15 2L15 3L13 3L13 2L12 2L12 4L16 4L16 5L14 5L14 8L15 8L15 9L16 9L16 10L14 10L14 9L12 9L12 7L13 7L13 5L11 5L11 6L10 6L10 4L11 4L11 3L8 3L8 4L9 4L9 5L8 5L8 7L9 7L9 8L6 8L6 9L5 9L5 8L0 8L0 11L1 11L1 12L2 12L2 11L1 11L1 10L3 10L3 12L4 12L4 13L1 13L1 14L0 14L0 19L1 19L1 18L3 18L3 19L4 19L4 20L3 20L3 21L1 21L1 20L0 20L0 25L1 25L1 22L4 22L4 23L5 23L5 24L6 24L6 25L7 25L7 24L8 24L8 27L9 27L9 26L10 26L10 28L8 28L8 33L9 33L9 30L10 30L10 31L11 31L11 33L12 33L12 31L13 31L13 30L11 30L11 29L10 29L10 28L11 28L11 25L12 25L12 26L13 26L13 27L12 27L12 29L13 29L13 28L14 28L14 29L16 29L16 30L15 30L15 31L14 31L14 32L15 32L15 33L16 33L16 32L17 32L17 33L18 33L18 32L17 32L17 31L19 31L19 33L20 33L20 32L23 32L23 33L26 33L26 31L27 31L27 30L29 30L29 32L31 32L31 33L32 33L32 32L31 32L31 31L30 31L30 30L33 30L33 28L32 28L32 26L33 26L33 24L32 24L32 26L31 26L31 27L30 27L30 25L29 25L29 24L31 24L31 23L32 23L32 22L33 22L33 21L32 21L32 20L31 20L31 19L32 19L32 18L33 18L33 17L32 17L32 16L31 16L31 15L32 15L32 14L33 14L33 13L31 13L31 15L30 15L30 13L29 13L29 12L28 12L28 11L29 11L29 10L28 10L28 11L27 11L27 12L28 12L28 13L29 13L29 14L28 14L28 16L27 16L27 13L26 13L26 14L25 14L25 12L24 12L24 11L26 11L26 10L27 10L27 9L28 9L28 8L27 8L27 9L26 9L26 8L22 8L22 7L23 7L23 5L24 5L24 3L25 3L25 2L24 2L24 3L23 3L23 2L22 2L22 1L21 1L21 0L19 0L19 1L20 1L20 2L18 2L18 3L17 3L17 4L16 4L16 2L17 2L17 0L16 0L16 1L15 1L15 0ZM23 0L23 1L24 1L24 0ZM8 1L8 2L9 2L9 1ZM20 2L20 3L18 3L18 4L17 4L17 5L19 5L19 8L18 8L18 6L17 6L17 7L16 7L16 6L15 6L15 8L16 8L16 9L17 9L17 11L16 11L16 12L15 12L15 11L14 11L14 12L13 12L13 13L12 13L12 11L13 11L13 10L12 10L12 9L11 9L11 8L10 8L10 9L6 9L6 10L9 10L9 11L8 11L8 12L11 12L11 13L8 13L8 14L7 14L7 13L6 13L6 12L7 12L7 11L6 11L6 12L5 12L5 11L4 11L4 12L5 12L5 13L6 13L6 14L4 14L4 17L3 17L3 18L4 18L4 17L5 17L5 21L4 21L4 22L5 22L5 23L6 23L6 24L7 24L7 23L6 23L6 22L8 22L8 24L9 24L9 25L10 25L10 24L11 24L11 23L10 23L10 22L13 22L13 23L12 23L12 25L15 25L15 26L16 26L16 27L14 27L14 28L18 28L18 29L17 29L17 30L18 30L18 29L21 29L21 30L24 30L24 28L23 28L23 29L22 29L22 28L21 28L21 27L22 27L22 26L24 26L24 24L28 24L28 23L30 23L30 22L31 22L31 20L29 20L29 21L27 21L27 20L26 20L26 21L27 21L27 22L26 22L26 23L25 23L25 21L24 21L24 22L23 22L23 21L22 21L22 20L23 20L23 19L24 19L24 20L25 20L25 19L27 19L27 18L28 18L28 19L29 19L29 17L30 17L30 19L31 19L31 16L30 16L30 15L29 15L29 17L27 17L27 16L26 16L26 17L27 17L27 18L25 18L25 15L24 15L24 14L23 14L23 13L22 13L22 12L20 12L20 13L21 13L21 14L23 14L23 16L21 16L21 15L20 15L20 14L19 14L19 11L24 11L24 10L25 10L25 9L24 9L24 10L23 10L23 9L22 9L22 8L21 8L21 7L22 7L22 6L21 6L21 7L20 7L20 5L19 5L19 4L20 4L20 3L21 3L21 4L22 4L22 5L23 5L23 4L22 4L22 3L21 3L21 2ZM9 6L9 7L10 7L10 6ZM11 6L11 7L12 7L12 6ZM24 6L24 7L25 7L25 6ZM17 8L17 9L18 9L18 11L19 11L19 10L22 10L22 9L20 9L20 8L19 8L19 9L18 9L18 8ZM29 8L29 9L30 9L30 8ZM31 8L31 10L33 10L33 9L32 9L32 8ZM4 9L4 10L5 10L5 9ZM10 9L10 11L11 11L11 9ZM30 11L30 12L31 12L31 11ZM14 12L14 13L15 13L15 12ZM17 12L17 13L16 13L16 14L15 14L15 15L14 15L14 16L15 16L15 17L12 17L12 15L13 15L13 14L11 14L11 15L10 15L10 14L9 14L9 16L8 16L8 15L7 15L7 14L6 14L6 15L5 15L5 16L6 16L6 17L7 17L7 16L8 16L8 17L10 17L10 20L9 20L9 18L6 18L6 19L7 19L7 20L6 20L6 21L7 21L7 20L8 20L8 22L10 22L10 20L11 20L11 17L12 17L12 18L13 18L13 19L12 19L12 21L13 21L13 20L14 20L14 21L15 21L15 20L16 20L16 19L18 19L18 18L20 18L20 20L19 20L19 22L17 22L17 21L18 21L18 20L17 20L17 21L16 21L16 22L15 22L15 23L14 23L14 24L15 24L15 25L16 25L16 26L17 26L17 27L18 27L18 26L20 26L20 27L21 27L21 25L19 25L19 22L22 22L22 21L20 21L20 20L22 20L22 19L23 19L23 18L24 18L24 19L25 19L25 18L24 18L24 17L23 17L23 18L22 18L22 19L21 19L21 17L20 17L20 16L19 16L19 15L18 15L18 16L17 16L17 15L16 15L16 14L17 14L17 13L18 13L18 12ZM1 15L1 17L2 17L2 16L3 16L3 15ZM6 15L6 16L7 16L7 15ZM15 15L15 16L16 16L16 17L15 17L15 18L16 18L16 17L17 17L17 16L16 16L16 15ZM18 16L18 17L19 17L19 16ZM14 19L14 20L15 20L15 19ZM29 21L29 22L30 22L30 21ZM16 22L16 23L17 23L17 24L18 24L18 23L17 23L17 22ZM27 22L27 23L28 23L28 22ZM20 23L20 24L22 24L22 25L23 25L23 23ZM2 24L2 25L4 25L4 24ZM25 25L25 28L28 28L28 25ZM26 26L26 27L27 27L27 26ZM29 28L29 30L30 30L30 29L31 29L31 28ZM26 29L26 30L27 30L27 29ZM19 30L19 31L20 31L20 30ZM23 31L23 32L25 32L25 31ZM27 32L27 33L28 33L28 32ZM0 0L0 7L7 7L7 0ZM1 1L1 6L6 6L6 1ZM2 2L2 5L5 5L5 2ZM26 0L26 7L33 7L33 0ZM27 1L27 6L32 6L32 1ZM28 2L28 5L31 5L31 2ZM0 26L0 33L7 33L7 26ZM1 27L1 32L6 32L6 27ZM2 28L2 31L5 31L5 28Z" fill="#000000"/></g></g></svg>
